<svg width="30" height="24" viewBox="0 0 30 24" fill="none" xmlns="http://www.w3.org/2000/svg">
<path d="M7.65269 23.3199C6.69217 23.7512 4.83448 24.4373 3.88593 23.6155C3.22671 23.0443 3.26337 21.6041 3.31026 20.817C3.45917 18.325 4.87563 15.8672 6.37316 13.9357C8.16351 11.627 10.843 9.86535 13.763 9.76683C15.9796 9.69201 18.1633 10.5817 19.8941 11.9685C21.6248 13.3553 22.9325 15.212 23.9369 17.1891C24.427 18.1539 24.8578 19.1852 24.8743 20.2672C24.8905 21.3492 24.4121 22.4966 23.461 23.0126C22.6985 23.4264 21.7567 23.3778 20.9316 23.1096C20.1066 22.8418 19.363 22.3753 18.5991 21.964C17.1898 21.2056 15.6262 20.6149 14.0289 20.7119C11.7195 20.8526 9.76355 22.3721 7.65269 23.3199Z" fill="#7140FD"/>
<path d="M5.46221 11.1432C5.74581 13.4805 3.97017 14.7521 2.15663 12.9949C1.04446 11.9174 0.178717 10.0006 0.0235771 8.45941C-0.0544918 7.68271 0.0405378 6.80499 0.62618 6.28894C1.18738 5.79433 2.06484 5.79159 2.73454 6.12507C3.40424 6.45855 3.89535 7.06788 4.2812 7.7089C4.90999 8.75372 5.3153 9.93249 5.46221 11.1432Z" fill="#7140FD"/>
<path d="M12.1668 4.8491C12.5405 6.4222 12.0967 8.85008 9.97142 8.67149C7.42732 8.45774 7.13176 4.06766 7.40687 2.25861C7.50988 1.58018 7.77352 0.82269 8.41329 0.574765C8.85377 0.403911 9.36683 0.535107 9.75567 0.803734C10.1443 1.07211 10.4311 1.46146 10.6987 1.85081C11.332 2.77342 11.9082 3.76013 12.1668 4.8491Z" fill="#7140FD"/>
<path d="M21.0138 3.82031C21.0368 2.77798 20.8043 1.68376 20.1199 0.897339C19.4355 0.110913 18.2258 -0.268956 17.302 0.214173C16.3429 0.715511 15.99 1.89877 15.8319 2.96904C15.6169 4.42241 15.2699 7.09322 16.3314 8.31763C16.9959 9.0841 17.9923 8.68528 18.7543 8.24255C20.2491 7.37357 20.9777 5.47647 21.0138 3.82031Z" fill="#7140FD"/>
<path d="M27.2742 13.3564C25.7774 14.7681 22.718 14.3306 22.9881 11.8955C23.1707 10.2483 24.2918 8.55126 25.308 7.28744C25.9278 6.51672 26.8347 5.77245 27.8002 5.9872C28.5659 6.15756 29.0927 6.9133 29.2266 7.68626C29.3603 8.45922 29.1775 9.24939 28.9697 10.0059C28.6337 11.2285 28.1968 12.4864 27.2742 13.3564Z" fill="#7140FD"/>
</svg>
